<svg width="64" height="65" viewBox="0 0 64 65" fill="none" xmlns="http://www.w3.org/2000/svg">
<path d="M28 1C29.1046 1 30 1.89543 30 3V7C30 8.10457 29.1046 9 28 9C26.8954 9 26 8.10457 26 7V3C26 1.89543 26.8954 1 28 1Z" fill="white"/>
<path d="M42.1411 6.85788C42.9221 7.63893 42.9221 8.90526 42.1411 9.68631L39.3127 12.5147C38.5316 13.2958 37.2653 13.2958 36.4842 12.5147C35.7032 11.7337 35.7032 10.4674 36.4842 9.6863L39.3126 6.85788C40.0937 6.07683 41.36 6.07683 42.1411 6.85788Z" fill="white"/>
<path d="M42 19C40.8954 19 40 19.8954 40 21C40 22.1046 40.8954 23 42 23H46C47.1046 23 48 22.1046 48 21C48 19.8954 47.1046 19 46 19H42Z" fill="white"/>
<path d="M13.8592 6.85788C14.6403 6.07683 15.9066 6.07683 16.6877 6.85788L19.5161 9.6863C20.2971 10.4674 20.2971 11.7337 19.5161 12.5147C18.735 13.2958 17.4687 13.2958 16.6876 12.5147L13.8592 9.68631C13.0782 8.90526 13.0782 7.63893 13.8592 6.85788Z" fill="white"/>
<path d="M10 19C8.89543 19 8 19.8954 8 21C8 22.1046 8.89543 23 10 23H14C15.1046 23 16 22.1046 16 21C16 19.8954 15.1046 19 14 19H10Z" fill="white"/>
<path d="M27.8265 0.828437C28.931 0.828435 29.8265 1.72387 29.8265 2.82843V6.82843C29.8265 7.93299 28.931 8.82842 27.8265 8.82842C26.7219 8.82843 25.8265 7.93299 25.8265 6.82843L25.8265 2.82844C25.8265 1.72387 26.7219 0.828437 27.8265 0.828437Z" fill="#269DE1"/>
<path d="M19.4164 12.4482C18.6433 13.2371 17.377 13.2498 16.5881 12.4766L13.7314 9.67677C12.9426 8.90361 12.9299 7.63734 13.703 6.84849C14.4762 6.05963 15.7424 6.04691 16.5313 6.82007L19.388 9.61993C20.1769 10.3931 20.1896 11.6594 19.4164 12.4482Z" fill="#269DE1"/>
<path fill-rule="evenodd" clip-rule="evenodd" d="M28 15C24.6863 15 22 17.6863 22 21V37H20C16.6863 37 14 39.6863 14 43V48.7906C14 51.9697 15.082 55.0541 17.0679 57.5365L22.4383 64.2494C22.8178 64.7238 23.3924 65 24 65H50C50.9871 65 51.8266 64.2798 51.9767 63.3041L55.0889 43.0752C55.7478 38.792 52.8766 34.7629 48.613 33.9877L34 31.3308V21C34 17.6863 31.3137 15 28 15ZM26 21C26 19.8954 26.8954 19 28 19C29.1046 19 30 19.8954 30 21V33C30 33.9666 30.6912 34.7948 31.6422 34.9677L47.8974 37.9232C50.0293 38.3108 51.4649 40.3254 51.1354 42.4669L48.2842 61H24.9612L20.1914 55.0377C18.7728 53.2646 18 51.0614 18 48.7906V43C18 41.8954 18.8954 41 20 41H22V45C22 46.1046 22.8954 47 24 47C25.1046 47 26 46.1046 26 45V21Z" fill="white"/>
</svg>
