<svg width="64" height="64" viewBox="0 0 64 64" fill="none" xmlns="http://www.w3.org/2000/svg">
<g clip-path="url(#clip0)">
<path fill-rule="evenodd" clip-rule="evenodd" d="M13.3574 29.0993C13.3574 18.9984 21.5459 10.8099 31.6468 10.8099C41.7478 10.8099 49.9362 18.9984 49.9362 29.0993V45.726C49.9362 55.827 41.7478 64.0154 31.6468 64.0154C21.5459 64.0154 13.3574 55.827 13.3574 45.726V29.0993ZM33.3095 14.2266C40.7914 15.0537 46.6108 21.3969 46.6108 29.0993H33.3095V14.2266ZM46.6108 32.4247H16.6828V45.726C16.6828 53.9904 23.3824 60.6901 31.6468 60.6901C39.9112 60.6901 46.6108 53.9904 46.6108 45.726V32.4247ZM29.9841 29.0993H16.6828C16.6828 21.3969 22.5022 15.0537 29.9841 14.2266V29.0993Z" fill="white"/>
<path d="M16.6836 29.0994C16.6836 21.4003 22.4887 15.06 29.985 14.1353V29.0994H16.6836Z" fill="#269DE1"/>
<path d="M23.5383 3.31511C17.7775 4.0352 12.692 7.42555 9.8116 12.4662L8.14892 15.3759L5.26172 13.7261L6.92439 10.8164C10.3241 4.86695 16.3265 0.865361 23.1258 0.0154419L23.5383 3.31511Z" fill="white"/>
<path d="M22.9092 9.92767C19.6412 10.756 16.8613 12.8989 15.2285 15.8485L14.8107 16.6032L11.9013 14.9927L12.3192 14.2379C14.3967 10.4849 17.934 7.75818 22.0922 6.70425L22.9092 9.92767Z" fill="white"/>
</g>
<defs>
<clipPath id="clip0">
<rect width="64" height="64" fill="white"/>
</clipPath>
</defs>
</svg>
