<svg width="64" height="64" viewBox="0 0 64 64" fill="none" xmlns="http://www.w3.org/2000/svg">
<path d="M15.4142 10.5858C16.1953 11.3668 16.1953 12.6332 15.4142 13.4142L12.8284 16H24C25.1046 16 26 16.8954 26 18C26 19.1046 25.1046 20 24 20H12.8284L15.4142 22.5858C16.1953 23.3668 16.1953 24.6332 15.4142 25.4142C14.6332 26.1953 13.3668 26.1953 12.5858 25.4142L6.58579 19.4142C5.80474 18.6332 5.80474 17.3668 6.58579 16.5858L12.5858 10.5858C13.3668 9.80474 14.6332 9.80474 15.4142 10.5858Z" fill="#269DE1"/>
<path fill-rule="evenodd" clip-rule="evenodd" d="M24 12C24 8.68629 26.6863 6 30 6C33.3137 6 36 8.68629 36 12V26.3308L50.613 28.9877C54.8766 29.7629 57.7478 33.792 57.0889 38.0752L53.9767 58.3041C53.8266 59.2798 52.9871 60 52 60H26C25.3924 60 24.8178 59.7238 24.4383 59.2494L19.0679 52.5365C17.082 50.0541 16 46.9697 16 43.7906V38C16 34.6863 18.6863 32 22 32H24V12ZM30 10C28.8954 10 28 10.8954 28 12V40C28 41.1046 27.1046 42 26 42C24.8954 42 24 41.1046 24 40V36H22C20.8954 36 20 36.8954 20 38V43.7906C20 46.0614 20.7728 48.2646 22.1914 50.0377L26.9612 56H50.2842L53.1354 37.4669C53.4649 35.3254 52.0293 33.3108 49.8974 32.9232L33.6422 29.9677C32.6912 29.7948 32 28.9666 32 28V12C32 10.8954 31.1046 10 30 10Z" fill="white"/>
<path d="M47.4142 10.5858C46.6332 9.80474 45.3668 9.80474 44.5858 10.5858C43.8047 11.3668 43.8047 12.6332 44.5858 13.4142L47.1716 16H39C37.8954 16 37 16.8954 37 18C37 19.1046 37.8954 20 39 20H47.1716L44.5858 22.5858C43.8047 23.3668 43.8047 24.6332 44.5858 25.4142C45.3668 26.1953 46.6332 26.1953 47.4142 25.4142L53.4142 19.4142C54.1953 18.6332 54.1953 17.3668 53.4142 16.5858L47.4142 10.5858Z" fill="#269DE1"/>
</svg>
