<svg width="71" height="46" viewBox="0 0 71 46" fill="none" xmlns="http://www.w3.org/2000/svg">
<g clip-path="url(#clip0)">
<path d="M25.332 3.66671L25.332 17.6667C25.332 19.3235 26.6752 20.6667 28.332 20.6667L42.332 20.6667C43.9889 20.6667 45.332 19.3235 45.332 17.6667L45.332 3.66671C45.332 2.00986 43.9889 0.666714 42.332 0.666714L28.332 0.666714C26.6752 0.666714 25.332 2.00986 25.332 3.66671Z" stroke="white" stroke-width="2" stroke-miterlimit="10" stroke-linecap="round" stroke-linejoin="round"/>
<path d="M35.6856 5.48958C35.4903 5.2813 35.1737 5.2813 34.9785 5.48958L31.4785 9.22291C31.2832 9.43119 31.2832 9.76888 31.4785 9.97716C31.6737 10.1854 31.9903 10.1854 32.1856 9.97716L34.832 7.15429V15.4667C34.832 15.7612 35.0559 16 35.332 16C35.6082 16 35.832 15.7612 35.832 15.4667V7.15429L38.4785 9.97716C38.6737 10.1854 38.9903 10.1854 39.1856 9.97716C39.3808 9.76888 39.3808 9.43119 39.1856 9.22291L35.6856 5.48958Z" fill="white"/>
</g>
<g clip-path="url(#clip1)">
<path d="M25.332 42.3332L25.332 28.3333C25.332 26.6764 26.6752 25.3333 28.332 25.3333L42.332 25.3333C43.9889 25.3333 45.332 26.6764 45.332 28.3332L45.332 42.3332C45.332 43.9901 43.9889 45.3332 42.332 45.3332L28.332 45.3332C26.6752 45.3332 25.332 43.9901 25.332 42.3332Z" stroke="white" stroke-width="2" stroke-miterlimit="10" stroke-linecap="round" stroke-linejoin="round"/>
<path d="M35.6856 40.5104C35.4903 40.7186 35.1737 40.7186 34.9785 40.5104L31.4785 36.777C31.2832 36.5687 31.2832 36.2311 31.4785 36.0228C31.6737 35.8145 31.9903 35.8145 32.1856 36.0228L34.832 38.8457V30.5332C34.832 30.2387 35.0559 29.9999 35.332 29.9999C35.6082 29.9999 35.832 30.2387 35.832 30.5332V38.8457L38.4785 36.0228C38.6737 35.8145 38.9903 35.8145 39.1856 36.0228C39.3808 36.2311 39.3808 36.5687 39.1856 36.777L35.6856 40.5104Z" fill="white"/>
</g>
<g clip-path="url(#clip2)">
<path d="M3.66604 45.3333L17.666 45.3333C19.3229 45.3333 20.666 43.9901 20.666 42.3333L20.666 28.3333C20.666 26.6764 19.3229 25.3333 17.666 25.3333L3.66604 25.3333C2.00919 25.3333 0.666042 26.6764 0.666042 28.3333L0.666042 42.3333C0.666042 43.9901 2.00918 45.3333 3.66604 45.3333Z" stroke="white" stroke-width="2" stroke-miterlimit="10" stroke-linecap="round" stroke-linejoin="round"/>
<path d="M5.48824 34.9797C5.27996 35.175 5.27996 35.4915 5.48824 35.6868L9.22157 39.1868C9.42985 39.3821 9.76754 39.3821 9.97582 39.1868C10.1841 38.9915 10.1841 38.675 9.97582 38.4797L7.15294 35.8333L15.4654 35.8333C15.7599 35.8333 15.9987 35.6094 15.9987 35.3333C15.9987 35.0571 15.7599 34.8333 15.4654 34.8333L7.15294 34.8333L9.97581 32.1868C10.1841 31.9916 10.1841 31.675 9.97581 31.4797C9.76754 31.2844 9.42985 31.2844 9.22157 31.4797L5.48824 34.9797Z" fill="white"/>
</g>
<g clip-path="url(#clip3)">
<path d="M67 45.3333L53 45.3333C51.3431 45.3333 50 43.9901 50 42.3333L50 28.3333C50 26.6764 51.3431 25.3333 53 25.3333L67 25.3333C68.6568 25.3333 70 26.6764 70 28.3333L70 42.3333C70 43.9901 68.6568 45.3333 67 45.3333Z" stroke="white" stroke-width="2" stroke-miterlimit="10" stroke-linecap="round" stroke-linejoin="round"/>
<path d="M65.1778 34.9797C65.3861 35.175 65.3861 35.4915 65.1778 35.6868L61.4444 39.1868C61.2362 39.3821 60.8985 39.3821 60.6902 39.1868C60.4819 38.9915 60.4819 38.675 60.6902 38.4797L63.5131 35.8333L55.2007 35.8333C54.9061 35.8333 54.6673 35.6094 54.6673 35.3333C54.6673 35.0571 54.9061 34.8333 55.2007 34.8333L63.5131 34.8333L60.6902 32.1868C60.4819 31.9916 60.4819 31.675 60.6902 31.4797C60.8985 31.2844 61.2362 31.2844 61.4444 31.4797L65.1778 34.9797Z" fill="white"/>
</g>
<defs>
<clipPath id="clip0">
<rect x="24.666" width="21.3333" height="21.3333" fill="white"/>
</clipPath>
<clipPath id="clip1">
<rect width="21.3333" height="21.3333" transform="matrix(1 0 0 -1 24.666 45.9999)" fill="white"/>
</clipPath>
<clipPath id="clip2">
<rect y="45.9999" width="21.3333" height="21.3333" transform="rotate(-90 0 45.9999)" fill="white"/>
</clipPath>
<clipPath id="clip3">
<rect width="21.3333" height="21.3333" transform="matrix(4.37114e-08 -1 -1 -4.37114e-08 70.666 45.9999)" fill="white"/>
</clipPath>
</defs>
</svg>
