<svg width="64" height="64" viewBox="0 0 64 64" fill="none" xmlns="http://www.w3.org/2000/svg">
<path fill-rule="evenodd" clip-rule="evenodd" d="M12.457 29.0839C12.457 18.983 20.6455 10.7946 30.7464 10.7946C40.8474 10.7946 49.0358 18.983 49.0358 29.0839V45.7106C49.0358 55.8116 40.8474 64 30.7464 64C20.6455 64 12.457 55.8116 12.457 45.7106V29.0839ZM32.4091 14.2112C39.891 15.0383 45.7105 21.3815 45.7105 29.0839H32.4091V14.2112ZM45.7105 32.4093H15.7824V45.7106C15.7824 53.9751 22.482 60.6747 30.7464 60.6747C39.0108 60.6747 45.7105 53.9751 45.7105 45.7106V32.4093ZM29.0837 29.0839H15.7824C15.7824 21.3815 21.6018 15.0383 29.0837 14.2112V29.0839Z" fill="white"/>
<path d="M55.4811 11.223L58.9514 6.02953C59.1284 5.76452 59.1931 5.44008 59.1312 5.12742C59.0693 4.81476 58.8859 4.53944 58.6212 4.3619L58.573 4.33127L53.2291 1.0977C53.153 1.05166 53.0687 1.02108 52.9808 1.0077C52.8929 0.994318 52.8032 0.998409 52.7169 1.01974C52.6306 1.04106 52.5494 1.07921 52.4778 1.13198C52.4063 1.18476 52.3459 1.25113 52.3 1.32729C52.2206 1.45985 52.1886 1.6155 52.2094 1.76864C52.2301 1.92179 52.3024 2.06331 52.4143 2.16992L55.0975 4.719L47.2009 6.94218L43.5739 7.62687L44.842 4.15051C44.9037 3.98169 44.896 3.79528 44.8204 3.63219C44.7448 3.4691 44.6076 3.34266 44.4389 3.28063C44.2941 3.22719 44.1353 3.22508 43.9892 3.27467C43.843 3.32426 43.7183 3.42253 43.6359 3.55305L40.2871 8.82565C40.1163 9.0947 40.0591 9.42056 40.1283 9.7317C40.1974 10.0428 40.3872 10.3138 40.6559 10.4852L40.7048 10.5147L46.1224 13.6233C46.1995 13.6676 46.2845 13.6962 46.3727 13.7075C46.4609 13.7189 46.5504 13.7127 46.6362 13.6894C46.722 13.666 46.8023 13.626 46.8726 13.5716C46.9429 13.5172 47.0018 13.4494 47.0458 13.3722C47.1222 13.2378 47.1505 13.0815 47.1262 12.9289C47.1019 12.7762 47.0264 12.6364 46.9121 12.5325L44.1704 10.0464L51.2477 7.87528L55.6377 7.15168L54.2892 10.5977C54.2235 10.765 54.227 10.9515 54.2988 11.1163C54.3705 11.2811 54.5048 11.4107 54.672 11.4767C54.8155 11.5335 54.9742 11.5393 55.1215 11.4931C55.2687 11.4469 55.3957 11.3515 55.4811 11.223Z" fill="white"/>
<path d="M15.7812 29.0839C15.7812 21.3849 21.5863 15.0445 29.0826 14.1199V29.0839H15.7812Z" fill="#269DE1"/>
<path d="M22.0078 9.91226C18.7399 10.7406 15.9599 12.8835 14.3271 15.8331L13.9093 16.5878L11 14.9773L11.4178 14.2225C13.4954 10.4695 17.0326 7.74277 21.1909 6.68884L22.0078 9.91226Z" fill="white"/>
</svg>
