<svg width="32" height="32" viewBox="0 0 32 32" fill="none" xmlns="http://www.w3.org/2000/svg">
<path d="M29.7 11H21.2C21.1 11 20.9 10.9 20.9 10.7V2.3C20.9 1.3 20.1 0.5 19.1 0.5H12.7C11.7 0.5 10.9 1.3 10.9 2.3V10.8C10.9 10.9 10.8 11.1 10.6 11.1H2.3C1.3 11.1 0.5 11.9 0.5 12.9V19.3C0.5 20.3 1.3 21.1 2.3 21.1H10.8C10.9 21.1 11.1 21.2 11.1 21.4V29.9C11.1 30.9 11.9 31.7 12.9 31.7H19.3C20.3 31.7 21.1 30.9 21.1 29.9V21.4C21.1 21.3 21.2 21.1 21.4 21.1H29.9C30.9 21.1 31.7 20.3 31.7 19.3V12.9C31.5 11.8 30.7 11 29.7 11ZM6.3 17.1C6.6 17.4 6.6 17.9 6.3 18.2C6.2 18.3 6 18.4 5.8 18.4C5.6 18.4 5.4 18.3 5.3 18.2L3.6 16.5C3.3 16.2 3.3 15.7 3.6 15.4L5.3 13.7C5.6 13.4 6.1 13.4 6.4 13.7C6.7 14 6.7 14.5 6.4 14.8L5.2 16L6.3 17.1ZM18.2 26.8L16.5 28.5C16.4 28.6 16.2 28.7 16 28.7C15.8 28.7 15.6 28.6 15.5 28.5L13.8 26.8C13.5 26.5 13.5 26 13.8 25.7C14.1 25.4 14.6 25.4 14.9 25.7L16 26.8L17.1 25.7C17.4 25.4 17.9 25.4 18.2 25.7C18.5 26 18.5 26.5 18.2 26.8ZM18.2 6.3C17.9 6.6 17.4 6.6 17.1 6.3L16 5.2L14.9 6.3C14.8 6.4 14.6 6.5 14.4 6.5C14.2 6.5 14 6.4 13.9 6.3C13.6 6 13.6 5.5 13.9 5.2L15.6 3.5C15.9 3.2 16.4 3.2 16.7 3.5L18.4 5.2C18.5 5.5 18.5 6 18.2 6.3ZM28.4 16.5L26.7 18.2C26.6 18.3 26.4 18.4 26.2 18.4C26 18.4 25.8 18.3 25.7 18.2C25.4 17.9 25.4 17.4 25.7 17.1L26.8 16L25.7 14.9C25.4 14.6 25.4 14.1 25.7 13.8C26 13.5 26.5 13.5 26.8 13.8L28.5 15.5C28.7 15.8 28.7 16.2 28.4 16.5Z" fill="black"/>
</svg>
